<svg width="32" height="32" viewBox="0 0 32 32" fill="none" xmlns="http://www.w3.org/2000/svg">
<path mask="url(#myMask)" d="M15.992 32C24.7763 32 32 24.7763 32 16.008C32 7.22373 24.7602 0 15.992 0C7.22373 0 0 7.22373 0 16.008C0 24.7763 7.22373 32 15.992 32ZM15.992 15.3967C13.8039 15.3967 12.002 13.5304 12.002 11.0367C12.002 8.71996 13.8039 6.78934 15.992 6.78934C18.1961 6.78934 19.9819 8.71996 19.9819 11.0367C19.9819 13.5304 18.1961 15.4128 15.992 15.3967ZM9.25088 23.8753C8.46254 23.8753 8.07642 23.3283 8.07642 22.6204C8.07642 20.9311 10.538 16.5872 15.992 16.5872C21.462 16.5872 23.9236 20.9311 23.9236 22.6204C23.9236 23.3283 23.5375 23.8753 22.7491 23.8753H9.25088Z" fill="#4A72F5"/>
<path d="M31.5 16.008C31.5 24.4998 24.5005 31.5 15.992 31.5C7.49987 31.5 0.5 24.5001 0.5 16.008C0.5 7.49955 7.5002 0.5 15.992 0.5C24.4844 0.5 31.5 7.5002 31.5 16.008ZM11.502 11.0367C11.502 13.7712 13.4934 15.8956 15.9901 15.8967C18.5103 15.914 20.4819 13.7663 20.4819 11.0367C20.4819 8.47606 18.5034 6.28934 15.992 6.28934C13.4979 6.28934 11.502 8.4747 11.502 11.0367ZM7.57642 22.6204C7.57642 23.0601 7.69632 23.5015 7.99007 23.8407C8.29294 24.1904 8.73245 24.3753 9.25088 24.3753H22.7491C23.2675 24.3753 23.7071 24.1904 24.0099 23.8407C24.3037 23.5015 24.4236 23.0601 24.4236 22.6204C24.4236 22.0949 24.238 21.4292 23.9024 20.7449C23.5623 20.0515 23.0516 19.3048 22.3623 18.6165C20.9782 17.2345 18.8714 16.0872 15.992 16.0872C13.1201 16.0872 11.0173 17.2349 9.63539 18.6168C8.94716 19.305 8.43705 20.0517 8.09727 20.745C7.76197 21.4292 7.57642 22.095 7.57642 22.6204Z" stroke="black" stroke-opacity="0.03"/>
<path d="M16 31C7.71573 31 1 24.2843 1 16H-1C-1 25.3888 6.61116 33 16 33V31ZM31 16C31 24.2843 24.2843 31 16 31V33C25.3888 33 33 25.3888 33 16H31ZM16 1C24.2843 1 31 7.71573 31 16H33C33 6.61116 25.3888 -1 16 -1V1ZM16 -1C6.61116 -1 -1 6.61116 -1 16H1C1 7.71573 7.71573 1 16 1V-1Z" fill="#161675" fill-opacity="0.15"/>

<mask id="myMask">
<rect x="0" y="0" width="32" height="32" fill="white" />
<path d="M23.1353 15.7765C23.2359 15.7765 23.2862 15.7094 23.3029 15.6172C23.546 14.3014 23.5376 14.2762 24.9122 14.008C25.0044 13.9913 25.0714 13.941 25.0714 13.8404C25.0714 13.7398 25.0044 13.6895 24.9122 13.6644C23.5376 13.3878 23.5795 13.3627 23.3029 12.0552C23.2862 11.963 23.2359 11.9043 23.1353 11.9043C23.0347 11.9043 22.9844 11.963 22.9677 12.0552C22.6911 13.3627 22.7414 13.3962 21.3585 13.6644C21.2663 13.6811 21.1992 13.7398 21.1992 13.8404C21.1992 13.941 21.2663 13.9913 21.3585 14.008C22.7414 14.293 22.7162 14.3014 22.9677 15.6172C22.9844 15.7094 23.0347 15.7765 23.1353 15.7765ZM26.9321 21.1741C27.0829 21.1741 27.1919 21.0651 27.2086 20.9059C27.4685 18.7938 27.569 18.7351 29.7147 18.3915C29.8907 18.3579 29.9996 18.2741 29.9996 18.1149C29.9996 17.9556 29.8907 17.8634 29.7482 17.8299C27.5858 17.4192 27.4685 17.436 27.2086 15.3155C27.1919 15.1563 27.0829 15.0473 26.9321 15.0473C26.7812 15.0473 26.6722 15.1563 26.6555 15.3071C26.3789 17.4528 26.3118 17.5282 24.1159 17.8299C23.9734 17.8551 23.8645 17.9556 23.8645 18.1149C23.8645 18.2657 23.9734 18.3579 24.1159 18.3915C26.3118 18.8105 26.3705 18.8105 26.6555 20.9226C26.6722 21.0651 26.7812 21.1741 26.9321 21.1741Z" fill="black"/>
<path d="M8.73286 18.1741C8.88372 18.1741 8.99268 18.0652 9.00944 17.9059C9.26926 15.7938 9.36984 15.7352 11.5155 15.3915C11.6915 15.358 11.8004 15.2742 11.8004 15.1149C11.8004 14.9557 11.6915 14.8635 11.549 14.83C9.3866 14.4193 9.26926 14.436 9.00944 12.3156C8.99268 12.1563 8.88372 12.0474 8.73286 12.0474C8.58199 12.0474 8.47304 12.1563 8.45627 12.3072C8.17969 14.4528 8.11264 14.5282 5.91672 14.83C5.77424 14.8551 5.66528 14.9557 5.66528 15.1149C5.66528 15.2658 5.77424 15.358 5.91672 15.3915C8.11264 15.8106 8.17131 15.8106 8.45627 17.9227C8.47304 18.0652 8.58199 18.1741 8.73286 18.1741Z" fill="black"/>
</mask>
</svg>
